# xmcd
#
# Track frame offsets:
# 150
# 13205
# 25601
# 37012
# 50022
# 60583
# 73374
# 86480
# 97352
# 111229
# 123724
# 137105
# 149867
# 162224
# 175881
# 188974
# 199965
# 211218
# 223074
# 234955
# 246457
# 259418
# 270509
# 283776
# 292921
#
# Disc length: 4086 seconds
#
# Revision: 0
# Processed by: cddbd v1.5.1PL0 Copyright (c) Steve Scherf et al.
# Submitted via: Axialis_AX_CDPlayer 2.6
#
DISCID=9c0ff419
DTITLE=Moon Mullican - I'll Sail My Ship Alone CD 1
DYEAR=1900
DGENRE=
TTITLE0=Gimme My Dime Back, Give Me My Money
TTITLE1=When You're Smiling
TTITLE2=I Wish That I Could Shimmy Like My Sister Kate
TTITLE3=Kangaroo Blues
TTITLE4=Draggin' The Bow
TTITLE5=I'm Tired Of You
TTITLE6=Truck Driver's Blues
TTITLE7=Boog-A-Boo Baby
TTITLE8=Jessie
TTITLE9=Alice From Dallas
TTITLE10=Pipeliner Blues
TTITLE11=New Falling Rain Blues
TTITLE12=What's The Matter With Deep Elem
TTITLE13=Sundown Blues
TTITLE14=I'm Going Back To Sadie
TTITLE15=Rackin' It Back
TTITLE16=No Good For Nothin' Blues
TTITLE17=Draft Board Blues
TTITLE18=Gonna Get Tight
TTITLE19=Pipeliner Blues
TTITLE20=Mean Mean Mama Blues
TTITLE21=Honey Don't You Turn Me Down
TTITLE22=Red Wagon
TTITLE23=Too Wet To Plow
TTITLE24=That's What I Like About The South
EXTD=
EXTT0=
EXTT1=
EXTT2=
EXTT3=
EXTT4=
EXTT5=
EXTT6=
EXTT7=
EXTT8=
EXTT9=
EXTT10=
EXTT11=
EXTT12=
EXTT13=
EXTT14=
EXTT15=
EXTT16=
EXTT17=
EXTT18=
EXTT19=
EXTT20=
EXTT21=
EXTT22=
EXTT23=
EXTT24=
PLAYORDER=
